<svg width="12" height="12" viewBox="0 0 12 12" fill="none" xmlns="http://www.w3.org/2000/svg">
<path d="M4.99217 5.02438C4.50683 5.02438 4.03241 4.88041 3.62892 4.6107C3.22543 4.34099 2.91101 3.95765 2.72545 3.50919C2.53988 3.06074 2.49152 2.56731 2.58647 2.09136C2.68141 1.6154 2.91541 1.17831 3.25885 0.83538C3.60228 0.492452 4.03972 0.259103 4.51582 0.164859C4.99191 0.0706159 5.48526 0.119714 5.93345 0.30594C6.38163 0.492166 6.7645 0.807152 7.03361 1.21104C7.30273 1.61493 7.44599 2.08957 7.44527 2.5749C7.44335 3.22458 7.18417 3.84705 6.72443 4.3061C6.2647 4.76516 5.64185 5.02342 4.99217 5.02438ZM4.99217 0.847565C4.65053 0.847565 4.31657 0.948871 4.03251 1.13867C3.74845 1.32848 3.52705 1.59825 3.39632 1.91388C3.26558 2.22951 3.23137 2.57682 3.29802 2.91189C3.36467 3.24696 3.52918 3.55474 3.77076 3.79631C4.01233 4.03788 4.32011 4.20239 4.65518 4.26904C4.99025 4.33569 5.33756 4.30149 5.65319 4.17075C5.96882 4.04001 6.23859 3.81861 6.42839 3.53456C6.61819 3.2505 6.7195 2.91653 6.7195 2.5749C6.7195 2.11678 6.53751 1.67743 6.21358 1.35349C5.88964 1.02955 5.45028 0.847565 4.99217 0.847565Z" fill="#656565"/>
<path d="M5.62343 11.146C5.54412 11.0667 5.48294 10.9711 5.4441 10.8658C5.40526 10.7606 5.38969 10.6482 5.39844 10.5364H1.1164V8.43887C1.63079 7.88966 2.25486 7.45468 2.94814 7.16211C3.64142 6.86954 4.38845 6.72593 5.14079 6.74057H5.40207C5.38542 6.6189 5.39705 6.49503 5.43607 6.3786C5.4751 6.26216 5.54045 6.15629 5.62706 6.06923L5.67061 6.02932C5.50005 6.02932 5.30772 6.00754 5.14079 6.00754C4.2555 5.98653 3.3766 6.1625 2.56764 6.52273C1.75868 6.88297 1.03987 7.41847 0.463202 8.09051C0.416092 8.15332 0.390625 8.22972 0.390625 8.30824V10.5364C0.390625 10.7288 0.46709 10.9134 0.603198 11.0495C0.739307 11.1857 0.923909 11.2621 1.1164 11.2621H5.72504L5.62343 11.146Z" fill="#656565"/>
<path d="M11.8891 8.11209L11.1633 7.89073C11.1115 7.7132 11.0409 7.54169 10.9528 7.37906L11.3157 6.70409C11.3275 6.67709 11.3304 6.64702 11.3238 6.61829C11.3173 6.58955 11.3017 6.56367 11.2794 6.54442L10.7532 6.01824C10.7333 5.9967 10.7068 5.98248 10.6778 5.97787C10.6489 5.97326 10.6192 5.97853 10.5936 5.99284L9.92587 6.35572C9.76165 6.2629 9.5876 6.18865 9.40694 6.13436L9.18558 5.40859C9.17619 5.38188 9.15837 5.35894 9.13481 5.34323C9.11124 5.32752 9.08322 5.3199 9.05494 5.3215H8.31103C8.28245 5.32117 8.25456 5.33022 8.23162 5.34726C8.20868 5.3643 8.19196 5.3884 8.18402 5.41585L7.96266 6.14162C7.78091 6.1945 7.60563 6.26753 7.4401 6.35935L6.77965 5.99647C6.7546 5.98244 6.72554 5.97732 6.6972 5.98193C6.66886 5.98654 6.64292 6.00062 6.62361 6.02187L6.08654 6.54442C6.06663 6.56539 6.05381 6.59209 6.0499 6.62075C6.046 6.6494 6.0512 6.67856 6.06477 6.70409L6.42765 7.36454C6.33176 7.52816 6.25505 7.70228 6.19904 7.88347L5.47327 8.1012C5.44581 8.10914 5.42172 8.12586 5.40468 8.1488C5.38763 8.17174 5.37858 8.19963 5.37891 8.22821V8.97213C5.38106 8.99834 5.39129 9.02324 5.40819 9.04339C5.42509 9.06354 5.44783 9.07794 5.47327 9.08462L6.19904 9.30598C6.25267 9.48399 6.32568 9.65557 6.41677 9.81765L6.05388 10.5108C6.04004 10.5356 6.03467 10.5643 6.0386 10.5924C6.04253 10.6206 6.05554 10.6467 6.07566 10.6668L6.60184 11.193C6.62239 11.2135 6.64889 11.227 6.67756 11.2315C6.70623 11.2361 6.73561 11.2315 6.76151 11.2184L7.4401 10.8555C7.60149 10.9426 7.77183 11.0119 7.94814 11.0623L8.16587 11.7881C8.1748 11.815 8.19178 11.8384 8.2145 11.8553C8.23722 11.8722 8.26459 11.8817 8.29289 11.8825H9.0368C9.06523 11.8822 9.09285 11.8729 9.11568 11.856C9.1385 11.839 9.15536 11.8153 9.16381 11.7881L9.38517 11.0442C9.55899 10.9933 9.72688 10.924 9.88595 10.8374L10.5718 11.2002C10.597 11.2136 10.6259 11.2184 10.6541 11.2138C10.6823 11.2092 10.7082 11.1955 10.7278 11.1748L11.2794 10.6813C11.2943 10.66 11.3022 10.6347 11.3022 10.6087C11.3022 10.5828 11.2943 10.5575 11.2794 10.5362L10.9165 9.85394C11.0046 9.69386 11.0752 9.52474 11.127 9.34953L11.8528 9.12817C11.8802 9.12023 11.9043 9.10351 11.9214 9.08057C11.9384 9.05763 11.9475 9.02973 11.9471 9.00116V8.2391C11.9505 8.2146 11.9468 8.18967 11.9365 8.16718C11.9262 8.1447 11.9098 8.1256 11.8891 8.11209ZM8.6848 9.81039C8.44478 9.81111 8.20994 9.74054 8.01007 9.60764C7.81019 9.47473 7.65428 9.28548 7.5621 9.06386C7.46991 8.84224 7.4456 8.59824 7.49225 8.36279C7.5389 8.12734 7.65441 7.91104 7.82414 7.74132C7.99386 7.57159 8.21016 7.45609 8.44561 7.40943C8.68106 7.36278 8.92506 7.38709 9.14668 7.47928C9.3683 7.57146 9.55755 7.72738 9.69046 7.92725C9.82336 8.12712 9.89393 8.36196 9.89321 8.60198C9.89225 8.92218 9.76463 9.22899 9.53822 9.4554C9.3118 9.68181 9.005 9.80943 8.6848 9.81039Z" fill="#656565"/>
</svg>
