<svg width="19" height="18" viewBox="0 0 19 18" fill="none" xmlns="http://www.w3.org/2000/svg">
<g clip-path="url(#clip0_4008_349)">
<path d="M7.09354 15.32C7.25468 15.8584 7.58522 16.3306 8.03607 16.6663C8.48691 17.002 9.03401 17.1833 9.5961 17.1833C10.1582 17.1833 10.7053 17.002 11.1561 16.6663C11.607 16.3306 11.9375 15.8584 12.0987 15.32H7.09354ZM2.88281 14.574H16.3094V12.3363L14.8175 10.0985V6.36891C14.8175 5.68322 14.6825 5.00424 14.4201 4.37075C14.1577 3.73725 13.7731 3.16164 13.2882 2.67679C12.8034 2.19193 12.2278 1.80732 11.5943 1.54492C10.9608 1.28252 10.2818 1.14746 9.5961 1.14746C8.91041 1.14746 8.23143 1.28252 7.59794 1.54492C6.96444 1.80732 6.38884 2.19193 5.90398 2.67679C5.41912 3.16164 5.03451 3.73725 4.77211 4.37075C4.50971 5.00424 4.37465 5.68322 4.37465 6.36891V10.0985L2.88281 12.3363V14.574Z" fill="white"/>
<circle cx="13.6245" cy="3.16061" r="2.23776" fill="#EA2727"/>
</g>
<defs>
<clipPath id="clip0_4008_349">
<rect width="17.9021" height="17.9021" fill="white" transform="translate(0.644531 0.0283203)"/>
</clipPath>
</defs>
</svg>
