<svg width="13" height="14" viewBox="0 0 13 14" fill="none" xmlns="http://www.w3.org/2000/svg">
<path d="M0.5 1.22266V12.7782H12.0174" stroke="#656565" stroke-width="0.888889" stroke-linecap="round" stroke-linejoin="round"/>
<path d="M0.5 9.20387L2.7955 6.74443M5.47057 6.56083L6.94263 7.93688M8.88212 7.52607L9.94291 4.60037M4.06736 4.14138C4.49405 4.14138 4.90327 4.31145 5.20499 4.61416C5.50671 4.91688 5.67621 5.32745 5.67621 5.75556C5.67621 6.18367 5.50671 6.59424 5.20499 6.89696C4.90327 7.19967 4.49405 7.36974 4.06736 7.36974C3.64067 7.36974 3.23145 7.19967 2.92974 6.89696C2.62802 6.59424 2.45852 6.18367 2.45852 5.75556C2.45852 5.32745 2.62802 4.91688 2.92974 4.61416C3.23145 4.31145 3.64067 4.14138 4.06736 4.14138ZM10.4085 1.44381C10.623 1.43871 10.8362 1.47667 11.0358 1.55547C11.2354 1.63428 11.4173 1.75233 11.5708 1.90268C11.7242 2.05303 11.8462 2.23266 11.9294 2.43098C12.0127 2.62931 12.0556 2.84234 12.0556 3.05754C12.0556 3.27274 12.0127 3.48577 11.9294 3.68409C11.8462 3.88242 11.7242 4.06204 11.5708 4.2124C11.4173 4.36275 11.2354 4.4808 11.0358 4.5596C10.8362 4.6384 10.623 4.67637 10.4085 4.67126C9.98857 4.66126 9.58916 4.48685 9.29567 4.18531C9.00217 3.88377 8.83786 3.47901 8.83786 3.05754C8.83786 2.63606 9.00217 2.23131 9.29567 1.92976C9.58916 1.62822 9.98857 1.45381 10.4085 1.44381ZM8.17191 7.36974C8.38319 7.36974 8.5924 7.41149 8.78759 7.49261C8.98279 7.57373 9.16014 7.69263 9.30954 7.84252C9.45893 7.99241 9.57744 8.17036 9.65829 8.3662C9.73915 8.56204 9.78076 8.77194 9.78076 8.98392C9.78076 9.19589 9.73915 9.4058 9.65829 9.60164C9.57744 9.79748 9.45893 9.97542 9.30954 10.1253C9.16014 10.2752 8.98279 10.3941 8.78759 10.4752C8.5924 10.5563 8.38319 10.5981 8.17191 10.5981C7.74522 10.5981 7.336 10.428 7.03429 10.1253C6.73257 9.8226 6.56307 9.41202 6.56307 8.98392C6.56307 8.55581 6.73257 8.14524 7.03429 7.84252C7.336 7.5398 7.74522 7.36974 8.17191 7.36974Z" stroke="#656565" stroke-width="0.888889" stroke-linecap="round" stroke-linejoin="round"/>
</svg>
