<svg width="16" height="16" viewBox="0 0 16 16" fill="none" xmlns="http://www.w3.org/2000/svg">
<path opacity="0.5" d="M14.5635 7.0957H1.88281V12.802C1.88281 13.3065 2.08321 13.7903 2.43992 14.147C2.79664 14.5037 3.28044 14.7041 3.78491 14.7041H12.6614C13.1658 14.7041 13.6496 14.5037 14.0064 14.147C14.3631 13.7903 14.5635 13.3065 14.5635 12.802V7.0957ZM5.05298 5.82763C4.88482 5.82763 4.72355 5.76083 4.60465 5.64193C4.48574 5.52303 4.41894 5.36176 4.41894 5.1936V2.65747C4.41894 2.48931 4.48574 2.32805 4.60465 2.20914C4.72355 2.09024 4.88482 2.02344 5.05298 2.02344C5.22113 2.02344 5.3824 2.09024 5.5013 2.20914C5.62021 2.32805 5.68701 2.48931 5.68701 2.65747V5.1936C5.68701 5.36176 5.62021 5.52303 5.5013 5.64193C5.3824 5.76083 5.22113 5.82763 5.05298 5.82763ZM11.3933 5.82763C11.2251 5.82763 11.0639 5.76083 10.945 5.64193C10.8261 5.52303 10.7593 5.36176 10.7593 5.1936V2.65747C10.7593 2.48931 10.8261 2.32805 10.945 2.20914C11.0639 2.09024 11.2251 2.02344 11.3933 2.02344C11.5615 2.02344 11.7227 2.09024 11.8416 2.20914C11.9605 2.32805 12.0273 2.48931 12.0273 2.65747V5.1936C12.0273 5.36176 11.9605 5.52303 11.8416 5.64193C11.7227 5.76083 11.5615 5.82763 11.3933 5.82763Z" fill="black"/>
<path d="M12.6614 3.29199H12.0273V5.19409C12.0273 5.36225 11.9605 5.52351 11.8416 5.64242C11.7227 5.76132 11.5615 5.82812 11.3933 5.82812C11.2251 5.82812 11.0639 5.76132 10.945 5.64242C10.8261 5.52351 10.7593 5.36225 10.7593 5.19409V3.29199H5.68701V5.19409C5.68701 5.36225 5.62021 5.52351 5.5013 5.64242C5.3824 5.76132 5.22113 5.82812 5.05298 5.82812C4.88482 5.82812 4.72355 5.76132 4.60465 5.64242C4.48574 5.52351 4.41894 5.36225 4.41894 5.19409V3.29199H3.78491C3.28044 3.29199 2.79664 3.49239 2.43992 3.8491C2.08321 4.20582 1.88281 4.68962 1.88281 5.19409V7.09619H14.5635V5.19409C14.5635 4.68962 14.3631 4.20582 14.0064 3.8491C13.6496 3.49239 13.1658 3.29199 12.6614 3.29199Z" fill="black"/>
</svg>
