<svg width="13" height="12" viewBox="0 0 13 12" fill="none" xmlns="http://www.w3.org/2000/svg">
<path d="M12.0945 1.90065L8.98113 1.90066V1.23785C8.98113 1.0541 8.80713 0.905273 8.5923 0.905273C8.37748 0.905273 8.20348 1.0541 8.20348 1.23785V1.9005H5.09287V1.23785C5.09287 1.0541 4.91887 0.905273 4.70405 0.905273C4.48922 0.905273 4.31522 1.0541 4.31522 1.23785V1.9005H1.20734C0.777881 1.9005 0.429688 2.19832 0.429688 2.56564V10.88C0.429688 11.2473 0.777881 11.5451 1.20734 11.5451H12.0945C12.5239 11.5451 12.8721 11.2473 12.8721 10.88V2.56564C12.8721 2.19847 12.5239 1.90065 12.0945 1.90065ZM12.0945 10.88H1.20734V2.56564H4.31522V2.90071C4.31522 3.08445 4.48922 3.23329 4.70405 3.23329C4.91887 3.23329 5.09287 3.08445 5.09287 2.90071V2.56581H8.20348V2.90088C8.20348 3.08463 8.37748 3.23345 8.5923 3.23345C8.80713 3.23345 8.98113 3.08463 8.98113 2.90088V2.56581H12.0945V10.88ZM9.37268 6.22411H10.1503C10.365 6.22411 10.5392 6.07511 10.5392 5.89153V5.22639C10.5392 5.04281 10.365 4.89381 10.1503 4.89381H9.37268C9.15804 4.89381 8.98385 5.04281 8.98385 5.22639V5.89153C8.98385 6.07511 9.15804 6.22411 9.37268 6.22411ZM9.37268 8.88452H10.1503C10.365 8.88452 10.5392 8.7357 10.5392 8.55195V7.88681C10.5392 7.70322 10.365 7.55423 10.1503 7.55423H9.37268C9.15804 7.55423 8.98385 7.70322 8.98385 7.88681V8.55195C8.98385 8.73586 9.15804 8.88452 9.37268 8.88452ZM7.03972 7.55423H6.26207C6.04744 7.55423 5.87325 7.70322 5.87325 7.88681V8.55195C5.87325 8.7357 6.04744 8.88452 6.26207 8.88452H7.03972C7.25435 8.88452 7.42855 8.7357 7.42855 8.55195V7.88681C7.42855 7.70339 7.25435 7.55423 7.03972 7.55423ZM7.03972 4.89381H6.26207C6.04744 4.89381 5.87325 5.04281 5.87325 5.22639V5.89153C5.87325 6.07511 6.04744 6.22411 6.26207 6.22411H7.03972C7.25435 6.22411 7.42855 6.07511 7.42855 5.89153V5.22639C7.42855 5.04264 7.25435 4.89381 7.03972 4.89381ZM3.92912 4.89381H3.15147C2.93684 4.89381 2.76264 5.04281 2.76264 5.22639V5.89153C2.76264 6.07511 2.93684 6.22411 3.15147 6.22411H3.92912C4.14375 6.22411 4.31794 6.07511 4.31794 5.89153V5.22639C4.31794 5.04264 4.14375 4.89381 3.92912 4.89381ZM3.92912 7.55423H3.15147C2.93684 7.55423 2.76264 7.70322 2.76264 7.88681V8.55195C2.76264 8.7357 2.93684 8.88452 3.15147 8.88452H3.92912C4.14375 8.88452 4.31794 8.7357 4.31794 8.55195V7.88681C4.31794 7.70339 4.14375 7.55423 3.92912 7.55423Z" fill="black"/>
</svg>
