<svg width="25" height="19" viewBox="0 0 25 19" fill="none" xmlns="http://www.w3.org/2000/svg">
<path d="M14.8085 3.91927C14.8269 3.85782 14.8243 3.79197 14.801 3.73219C14.7777 3.67242 14.735 3.62216 14.6798 3.58941C14.6246 3.55717 14.5601 3.5447 14.4968 3.55405C14.4335 3.5634 14.3754 3.59402 14.3318 3.64085L9.8105 8.46329C9.77294 8.50369 9.74794 8.55414 9.73854 8.6085C9.72914 8.66285 9.73574 8.71877 9.75755 8.76944C9.77935 8.82011 9.81542 8.86335 9.86136 8.89389C9.9073 8.92443 9.96113 8.94095 10.0163 8.94145H11.8941L10.8758 12.2628C10.8573 12.3243 10.86 12.3901 10.8833 12.4499C10.9066 12.5097 10.9492 12.5599 11.0044 12.5927C11.1179 12.6578 11.2616 12.6381 11.3524 12.5412L15.7103 7.71881C15.748 7.67832 15.773 7.62773 15.7823 7.57324C15.7917 7.51874 15.7849 7.4627 15.763 7.41197C15.741 7.36124 15.7047 7.31802 15.6585 7.2876C15.6123 7.25717 15.5583 7.24086 15.503 7.24066H13.6252L14.8085 3.91927Z" fill="white"/>
<path d="M7.71227 0.52417C6.97168 0.523808 6.24727 0.740838 5.62888 1.14835C5.01049 1.55586 4.52531 2.13592 4.23352 2.8166L3.0351 5.61292C2.92246 5.87874 2.71853 6.09555 2.4601 6.22424C1.70352 6.60253 1.16635 7.30614 0.999901 8.13384L0.49602 10.6744C0.446964 10.9185 0.422129 11.1669 0.421875 11.4159V12.0408C0.421875 13.2725 1.01201 14.3756 1.93503 15.0626V17.9255C1.93503 18.1261 2.01474 18.3186 2.15663 18.4605C2.29852 18.6024 2.49095 18.6821 2.69161 18.6821H5.71793C5.91859 18.6821 6.11102 18.6024 6.25291 18.4605C6.3948 18.3186 6.47451 18.1261 6.47451 17.9255V15.9009C8.42951 15.9735 10.6281 16.034 12.5271 16.034C14.4262 16.034 16.6248 15.9735 18.5798 15.9009V17.9255C18.5798 18.1261 18.6595 18.3186 18.8014 18.4605C18.9433 18.6024 19.1357 18.6821 19.3363 18.6821H22.3627C22.5633 18.6821 22.7558 18.6024 22.8976 18.4605C23.0395 18.3186 23.1192 18.1261 23.1192 17.9255V15.0626C24.0423 14.3756 24.6324 13.2725 24.6324 12.0408V11.4159C24.6324 11.1657 24.6077 10.9186 24.5583 10.6744L24.0513 8.13233C23.9702 7.72394 23.7966 7.33959 23.5437 7.00882C23.2908 6.67804 22.9655 6.40964 22.5927 6.22424C22.3337 6.09584 22.1292 5.87899 22.0162 5.61292L20.8177 2.8166C20.5259 2.13592 20.0408 1.55586 19.4224 1.14835C18.804 0.740838 18.0796 0.523808 17.339 0.52417H7.71378H7.71227ZM5.62563 3.4143C5.80053 3.00547 6.09168 2.65701 6.46291 2.41222C6.83414 2.16742 7.2691 2.03706 7.71378 2.03733H17.3405C17.7849 2.03736 18.2195 2.16785 18.5905 2.41263C18.9614 2.65741 19.2523 3.0057 19.4271 3.4143L20.6256 6.2091C20.8797 6.80386 21.3373 7.28875 21.9163 7.577C22.2522 7.74647 22.4928 8.06121 22.5669 8.43042L23.0754 10.971C23.1056 11.1183 23.1203 11.2666 23.1192 11.4159V12.0408C23.1215 12.6174 22.9012 13.1726 22.5044 13.5909C22.1075 14.0092 21.5646 14.2583 20.9887 14.2863C18.6358 14.3923 15.2599 14.5209 12.5271 14.5209C9.79438 14.5209 6.41852 14.3938 4.06556 14.2863C3.48938 14.2587 2.9461 14.0097 2.54892 13.5914C2.15174 13.1731 1.9313 12.6177 1.93352 12.0408V11.4159C1.93352 11.2666 1.94865 11.1183 1.97891 10.971L2.48582 8.42891C2.52158 8.24648 2.59888 8.07474 2.71171 7.92701C2.82455 7.77927 2.96989 7.65951 3.13648 7.577C3.71602 7.2895 4.17299 6.80378 4.4272 6.2091L5.62563 3.4143Z" fill="white"/>
</svg>
