<svg width="12" height="11" viewBox="0 0 12 11" fill="none" xmlns="http://www.w3.org/2000/svg">
<path d="M5.98 10.9963C3.01849 10.9963 0.609375 8.60993 0.609375 5.67637C0.609375 2.74281 3.01849 0.356445 5.98 0.356445C8.94152 0.356445 11.3506 2.74281 11.3506 5.67637C11.3506 8.60993 8.94152 10.9963 5.98 10.9963ZM5.98 1.11643C3.44046 1.11643 1.37661 3.1608 1.37661 5.67637C1.37661 8.19193 3.44046 10.2363 5.98 10.2363C8.51955 10.2363 10.5834 8.19193 10.5834 5.67637C10.5834 3.1608 8.51955 1.11643 5.98 1.11643Z" fill="black"/>
<path d="M7.51264 7.57665C7.44359 7.57665 7.37454 7.56145 7.31316 7.52345L5.39508 6.38346C5.33853 6.34936 5.29185 6.30134 5.25958 6.24408C5.22731 6.18681 5.21056 6.12225 5.21094 6.05667V3.01671C5.21094 2.80392 5.37974 2.63672 5.59456 2.63672C5.80939 2.63672 5.97818 2.80392 5.97818 3.01671V5.84387L7.71212 6.86986C7.78354 6.91322 7.83874 6.97846 7.86936 7.0557C7.89998 7.13293 7.90434 7.21795 7.88178 7.29786C7.85923 7.37777 7.81099 7.44822 7.74438 7.49853C7.67776 7.54884 7.59641 7.57626 7.51264 7.57665Z" fill="black"/>
</svg>
