<svg width="56" height="26" viewBox="0 0 56 26" fill="none" xmlns="http://www.w3.org/2000/svg">
<path d="M1 15.2857L3.87234 3.85714L5.59574 1L7.31915 3.28571L10.1915 3.85714L12.4894 5C12.4894 5.38095 12.4894 6.25714 12.4894 6.71429C12.4894 7.17143 12.8723 9.19048 13.0638 10.1429L15.3617 10.7143L15.9362 11.8571L17.0851 15.2857L18.234 16.4286L19.9574 14.7143L21.6809 12.4286L22.8298 13C23.4043 13.381 24.6681 14.3714 25.1277 15.2857C25.5872 16.2 25.7021 17.5714 25.7021 18.1429H30.2979V15.2857H30.8723V11.8571H32.0213V10.1429L34.3191 9.57143V5.57143L36.617 5H37.766V6.71429H44.6596V9.57143H45.8085V13H47.5319L49.8298 15.2857L52.7021 17.5714L53.2766 22.1429L55 25" stroke="white"/>
<path d="M3.87234 3.85714L1 15.2857V25H55L53.2766 22.1429L52.7021 17.5714L49.8298 15.2857L47.5319 13H45.8085V9.57143H44.6596V6.71429H37.766V5H36.617L34.3191 5.57143V9.57143L32.0213 10.1429V11.8571H30.8723V15.2857H30.2979V18.1429H25.7021C25.7021 17.5714 25.5872 16.2 25.1277 15.2857C24.6681 14.3714 23.4043 13.381 22.8298 13L21.6809 12.4286L19.9574 14.7143L18.234 16.4286L17.0851 15.2857L15.9362 11.8571L15.3617 10.7143L13.0638 10.1429C12.8723 9.19048 12.4894 7.17143 12.4894 6.71429V5L10.1915 3.85714L7.31915 3.28571L5.59574 1L3.87234 3.85714Z" fill="url(#paint0_linear_4356_148)"/>
<defs>
<linearGradient id="paint0_linear_4356_148" x1="28" y1="2.5" x2="28" y2="25" gradientUnits="userSpaceOnUse">
<stop stop-color="#00F2B2"/>
<stop offset="1" stop-color="#00F2B2" stop-opacity="0"/>
</linearGradient>
</defs>
</svg>
