<svg width="20" height="20" viewBox="0 0 20 20" fill="none" xmlns="http://www.w3.org/2000/svg">
<path d="M7.44705 5.11133L7.75816 6.83333C7.80949 7.17088 7.77838 7.51388 7.6656 7.84133L4.33594 17.5558M12.1137 5.11133L11.8026 6.83333C11.7513 7.17088 11.7824 7.51388 11.8952 7.84133L15.2248 17.5558" stroke="#656565" stroke-width="0.888889" stroke-linecap="round" stroke-linejoin="round"/>
<path d="M2.78125 9.00022L3.03325 8.16022C3.10092 7.93466 3.13436 7.82188 3.21136 7.72699C3.28758 7.63288 3.40114 7.56366 3.62747 7.42677L7.03881 5.36022C7.24103 5.23733 7.34292 5.17588 7.46036 5.14399C7.57703 5.11133 7.70303 5.11133 7.95347 5.11133H11.609C11.8595 5.11133 11.9847 5.11133 12.1021 5.14244C12.2188 5.17511 12.3207 5.23577 12.5237 5.35944L15.935 7.42677C16.1614 7.56366 16.2749 7.63288 16.3511 7.72699C16.4274 7.82188 16.4616 7.93466 16.53 8.16099L16.7813 9.00022M2.78125 17.5558H16.7813M3.55903 7.44466H15.6146" stroke="#656565" stroke-width="0.888889" stroke-linecap="round" stroke-linejoin="round"/>
<path d="M7.83594 8.22266L12.8915 11.7227L4.33594 17.556" stroke="#656565" stroke-width="0.888889" stroke-linecap="round" stroke-linejoin="round"/>
<path d="M11.7235 8.22222L6.66797 11.7222L15.2235 17.5556M7.44575 5.11111L8.53464 3.36889C9.10475 2.45656 9.39019 2 9.77908 2C10.168 2 10.4534 2.45656 11.0235 3.36889L12.1124 5.11111" stroke="#656565" stroke-width="0.888889" stroke-linecap="round" stroke-linejoin="round"/>
</svg>
