<svg width="18" height="18" viewBox="0 0 18 18" fill="none" xmlns="http://www.w3.org/2000/svg">
<g clip-path="url(#clip0_2844_4861)">
<path d="M10.4302 4.92192C10.4431 4.87906 10.4413 4.83312 10.425 4.79142C10.4087 4.74972 10.379 4.71466 10.3405 4.69181C10.302 4.66933 10.257 4.66063 10.2128 4.66715C10.1687 4.67367 10.1281 4.69503 10.0977 4.7277L6.94373 8.09176C6.91753 8.11994 6.90009 8.15513 6.89353 8.19305C6.88697 8.23097 6.89158 8.26998 6.90679 8.30533C6.922 8.34067 6.94716 8.37083 6.97921 8.39214C7.01126 8.41344 7.04881 8.42497 7.08729 8.42531H8.39723L7.68684 10.7423C7.67398 10.7851 7.67582 10.8311 7.69208 10.8728C7.70834 10.9145 7.73808 10.9495 7.77657 10.9724C7.85573 11.0178 7.95601 11.004 8.01934 10.9365L11.0593 7.57242C11.0856 7.54417 11.1031 7.50889 11.1096 7.47087C11.1161 7.43286 11.1114 7.39376 11.0961 7.35838C11.0807 7.32299 11.0554 7.29284 11.0232 7.27161C10.991 7.25039 10.9533 7.23901 10.9147 7.23887H9.60479L10.4302 4.92192Z" fill="black"/>
<path d="M5.64035 2.55469C5.12373 2.55443 4.61839 2.70583 4.18701 2.9901C3.75563 3.27438 3.41718 3.67902 3.21363 4.15385L2.37763 6.10452C2.29906 6.28995 2.1568 6.4412 1.97652 6.53097C1.44874 6.79485 1.07402 7.28569 0.95791 7.86308L0.60641 9.63535C0.572189 9.80564 0.554865 9.97889 0.554688 10.1526V10.5885C0.554688 11.4477 0.966354 12.2172 1.61024 12.6965V14.6936C1.61024 14.8336 1.66585 14.9678 1.76483 15.0668C1.8638 15.1657 1.99805 15.2214 2.13802 15.2214H4.24913C4.38911 15.2214 4.52335 15.1657 4.62233 15.0668C4.7213 14.9678 4.77691 14.8336 4.77691 14.6936V13.2812C6.14069 13.3319 7.67441 13.3741 8.99913 13.3741C10.3239 13.3741 11.8576 13.3319 13.2214 13.2812V14.6936C13.2214 14.8336 13.277 14.9678 13.3759 15.0668C13.4749 15.1657 13.6092 15.2214 13.7491 15.2214H15.8602C16.0002 15.2214 16.1345 15.1657 16.2334 15.0668C16.3324 14.9678 16.388 14.8336 16.388 14.6936V12.6965C17.0319 12.2172 17.4436 11.4477 17.4436 10.5885V10.1526C17.4436 9.97806 17.4263 9.80565 17.3919 9.63535L17.0382 7.86202C16.9817 7.57714 16.8605 7.30902 16.6841 7.07828C16.5077 6.84753 16.2808 6.6603 16.0207 6.53097C15.84 6.4414 15.6974 6.29013 15.6185 6.10452L14.7825 4.15385C14.579 3.67902 14.2405 3.27438 13.8091 2.9901C13.3778 2.70583 12.8724 2.55443 12.3558 2.55469H5.64141H5.64035ZM4.18474 4.5708C4.30676 4.2856 4.50986 4.04253 4.76882 3.87176C5.02779 3.70099 5.33121 3.61006 5.64141 3.61024H12.3569C12.6669 3.61026 12.9701 3.7013 13.2288 3.87205C13.4876 4.0428 13.6905 4.28577 13.8125 4.5708L14.6485 6.52041C14.8258 6.9353 15.1449 7.27356 15.5489 7.47463C15.7832 7.59285 15.951 7.81241 16.0027 8.06997L16.3574 9.84224C16.3785 9.94498 16.3887 10.0484 16.388 10.1526V10.5885C16.3896 10.9907 16.236 11.3781 15.9591 11.6698C15.6823 11.9616 15.3035 12.1354 14.9018 12.155C13.2604 12.2289 10.9055 12.3186 8.99913 12.3186C7.0928 12.3186 4.73785 12.2299 3.09647 12.155C2.69453 12.1357 2.31555 11.962 2.03848 11.6702C1.76142 11.3784 1.60764 10.9909 1.60919 10.5885V10.1526C1.60919 10.0484 1.61974 9.94498 1.64085 9.84224L1.99447 8.06891C2.01941 7.94165 2.07333 7.82185 2.15204 7.71879C2.23076 7.61573 2.33215 7.53219 2.44835 7.47463C2.85263 7.27408 3.17141 6.93524 3.34874 6.52041L4.18474 4.5708Z" fill="black"/>
</g>
<defs>
<clipPath id="clip0_2844_4861">
<rect width="16.8889" height="16.8889" fill="white" transform="translate(0.554688 0.444336)"/>
</clipPath>
</defs>
</svg>
