<svg width="18" height="18" viewBox="0 0 18 18" fill="none" xmlns="http://www.w3.org/2000/svg">
<path d="M14.2743 8.66708C14.2748 7.81783 14.0683 6.98126 13.6726 6.2298L12.8836 7.01936C13.1054 7.54036 13.2194 8.10085 13.2188 8.66708H14.2743ZM12.9095 5.50041L12.1632 4.75414L9.67473 7.24208C9.46322 7.13962 9.23155 7.08554 8.99653 7.08375C8.68338 7.08375 8.37726 7.17661 8.11688 7.35059C7.8565 7.52456 7.65356 7.77185 7.53372 8.06116C7.41389 8.35048 7.38253 8.66884 7.44362 8.97597C7.50472 9.28311 7.65551 9.56523 7.87695 9.78666C8.09838 10.0081 8.3805 10.1589 8.68764 10.22C8.99478 10.2811 9.31313 10.2497 9.60245 10.1299C9.89177 10.01 10.139 9.80711 10.313 9.54673C10.487 9.28635 10.5799 8.98023 10.5799 8.66708C10.5781 8.43207 10.524 8.2004 10.4215 7.98888L12.9095 5.50041ZM8.99653 9.19486C8.89215 9.19486 8.79011 9.1639 8.70332 9.10591C8.61652 9.04792 8.54888 8.96549 8.50893 8.86905C8.46898 8.77261 8.45853 8.66649 8.4789 8.56411C8.49926 8.46174 8.54953 8.36769 8.62334 8.29388C8.69715 8.22007 8.79119 8.16981 8.89357 8.14944C8.99595 8.12908 9.10207 8.13953 9.1985 8.17948C9.29494 8.21942 9.37737 8.28707 9.43537 8.37386C9.49336 8.46065 9.52431 8.56269 9.52431 8.66708C9.52431 8.80705 9.46871 8.9413 9.36973 9.04027C9.27075 9.13925 9.13651 9.19486 8.99653 9.19486ZM8.99653 4.44486C9.56269 4.44497 10.123 4.55894 10.6443 4.78L11.4338 3.99044C10.63 3.56956 9.73109 3.36334 8.82418 3.39174C7.91727 3.42014 7.03305 3.6822 6.25713 4.15254C5.4812 4.62289 4.83984 5.28559 4.39514 6.0765C3.95044 6.86741 3.71746 7.75973 3.71876 8.66708H4.77431C4.77571 7.5477 5.221 6.47458 6.01251 5.68306C6.80403 4.89154 7.87716 4.44625 8.99653 4.44486Z" fill="black"/>
<path d="M8.99827 16.0561C7.53688 16.0561 6.10832 15.6228 4.89322 14.8108C3.67812 13.9989 2.73107 12.845 2.17182 11.4948C1.61258 10.1447 1.46625 8.65902 1.75135 7.22571C2.03646 5.79241 2.74018 4.47583 3.77353 3.44248C4.80689 2.40912 6.12346 1.7054 7.55677 1.4203C8.99007 1.1352 10.4757 1.28152 11.8259 1.84077C13.176 2.40002 14.33 3.34707 15.1419 4.56217C15.9538 5.77726 16.3872 7.20583 16.3872 8.66721C16.3849 10.6262 15.6057 12.5043 14.2205 13.8895C12.8353 15.2747 10.9572 16.0539 8.99827 16.0561ZM8.99827 2.33388C7.74565 2.33388 6.52117 2.70532 5.47966 3.40124C4.43814 4.09715 3.62639 5.08629 3.14703 6.24355C2.66768 7.40082 2.54225 8.67424 2.78663 9.90278C3.031 11.1313 3.63419 12.2598 4.51992 13.1456C5.40566 14.0313 6.53415 14.6345 7.7627 14.8789C8.99124 15.1232 10.2647 14.9978 11.4219 14.5184C12.5792 14.0391 13.5683 13.2273 14.2642 12.1858C14.9602 11.1443 15.3316 9.91983 15.3316 8.66721C15.3296 6.98811 14.6618 5.37834 13.4745 4.19103C12.2871 3.00372 10.6774 2.33583 8.99827 2.33388Z" fill="black"/>
</svg>
