<svg width="18" height="18" viewBox="0 0 18 18" fill="none" xmlns="http://www.w3.org/2000/svg">
<rect x="0.999132" y="0.88878" width="16" height="16" rx="0.444444" stroke="black" stroke-width="0.888889"/>
<line x1="1.13104" y1="17.0187" x2="17.131" y2="1.01874" stroke="black" stroke-width="0.888889"/>
<line x1="4.11328" y1="4.44423" x2="8.55773" y2="4.44423" stroke="black" stroke-width="0.888889"/>
<line x1="4.11328" y1="6.22255" x2="8.55773" y2="6.22255" stroke="black" stroke-width="0.888889"/>
<path d="M9.86096 11.8426C9.77405 11.6131 9.5175 11.4974 9.28794 11.5844C9.05838 11.6713 8.94275 11.9278 9.02966 12.1574L9.86096 11.8426ZM9.02966 12.1574C9.16453 12.5136 9.35054 12.9122 9.57397 13.2593C9.78858 13.5927 10.0756 13.9391 10.4339 14.1111C10.6239 14.2024 10.8452 14.2497 11.0818 14.2056C11.3169 14.1617 11.5223 14.036 11.6969 13.8597C12.0317 13.5215 12.3057 12.9447 12.5395 12.1214L11.6844 11.8786C11.4611 12.6652 11.2367 13.061 11.0652 13.2343C10.9866 13.3136 10.9369 13.3284 10.9189 13.3317C10.9025 13.3348 10.8731 13.336 10.8187 13.3098C10.6881 13.2471 10.5116 13.0736 10.3214 12.7782C10.1401 12.4965 9.98006 12.1572 9.86096 11.8426L9.02966 12.1574Z" fill="black"/>
<path d="M14.7773 13.7773C14.1001 12.4358 12.4408 10.5576 11.2218 13.7773" stroke="black" stroke-width="0.888889" stroke-linecap="round"/>
</svg>
