<svg width="115" height="42" viewBox="0 0 115 42" fill="none" xmlns="http://www.w3.org/2000/svg">
<path d="M114.442 5.44194C114.686 5.19786 114.686 4.80214 114.442 4.55806L110.464 0.580583C110.22 0.336505 109.825 0.336505 109.581 0.580583C109.337 0.82466 109.337 1.22039 109.581 1.46447L113.116 5L109.581 8.53553C109.337 8.77961 109.337 9.17534 109.581 9.41942C109.825 9.6635 110.22 9.6635 110.464 9.41942L114.442 5.44194ZM15.6277 5V4.375H15.0027V5H15.6277ZM15.6277 41V41.625H16.2527V41H15.6277ZM0 41.625H1.95346V40.375H0L0 41.625ZM5.86037 41.625H9.76729V40.375H5.86037V41.625ZM13.6742 41.625H15.6277V40.375H13.6742V41.625ZM16.2527 41V38.75H15.0027V41H16.2527ZM16.2527 34.25V29.75H15.0027V34.25H16.2527ZM16.2527 25.25V20.75H15.0027V25.25H16.2527ZM16.2527 16.25V11.75H15.0027V16.25H16.2527ZM16.2527 7.25V5H15.0027V7.25H16.2527ZM15.6277 5.625H18.3761V4.375H15.6277V5.625ZM23.8729 5.625H29.3697V4.375H23.8729V5.625ZM34.8666 5.625H37.615V4.375H34.8666V5.625ZM37.615 5.625H40.002V4.375H37.615V5.625ZM44.7761 5.625H49.5501V4.375H44.7761V5.625ZM54.3242 5.625H59.0983V4.375H54.3242V5.625ZM63.8723 5.625H68.6464V4.375H63.8723V5.625ZM73.4204 5.625H78.1945V4.375H73.4204V5.625ZM82.9686 5.625H87.7426V4.375H82.9686V5.625ZM92.5167 5.625H97.2908V4.375H92.5167V5.625ZM102.065 5.625H106.839V4.375H102.065V5.625ZM111.613 5.625H114V4.375H111.613V5.625ZM114.442 5.44194C114.686 5.19786 114.686 4.80214 114.442 4.55806L110.464 0.580583C110.22 0.336505 109.825 0.336505 109.581 0.580583C109.337 0.82466 109.337 1.22039 109.581 1.46447L113.116 5L109.581 8.53553C109.337 8.77961 109.337 9.17534 109.581 9.41942C109.825 9.6635 110.22 9.6635 110.464 9.41942L114.442 5.44194ZM15.6277 5V4.375H15.0027V5H15.6277ZM15.6277 41V41.625H16.2527V41H15.6277ZM0 41.625H1.95346V40.375H0L0 41.625ZM5.86037 41.625H9.76729V40.375H5.86037V41.625ZM13.6742 41.625H15.6277V40.375H13.6742V41.625ZM16.2527 41V38.75H15.0027V41H16.2527ZM16.2527 34.25V29.75H15.0027V34.25H16.2527ZM16.2527 25.25V20.75H15.0027V25.25H16.2527ZM16.2527 16.25V11.75H15.0027V16.25H16.2527ZM16.2527 7.25V5H15.0027V7.25H16.2527ZM15.6277 5.625H18.3761V4.375H15.6277V5.625ZM23.8729 5.625H29.3697V4.375H23.8729V5.625ZM34.8666 5.625H37.615V4.375H34.8666V5.625ZM37.615 5.625H40.002V4.375H37.615V5.625ZM44.7761 5.625H49.5501V4.375H44.7761V5.625ZM54.3242 5.625H59.0983V4.375H54.3242V5.625ZM63.8723 5.625H68.6464V4.375H63.8723V5.625ZM73.4204 5.625H78.1945V4.375H73.4204V5.625ZM82.9686 5.625H87.7426V4.375H82.9686V5.625ZM92.5167 5.625H97.2908V4.375H92.5167V5.625ZM102.065 5.625H106.839V4.375H102.065V5.625ZM111.613 5.625H114V4.375H111.613V5.625Z" fill="url(#paint0_linear_2655_247)"/>
<defs>
<linearGradient id="paint0_linear_2655_247" x1="37.615" y1="5.5625" x2="113" y2="5.5625" gradientUnits="userSpaceOnUse">
<stop stop-color="#13B78C"/>
<stop offset="1" stop-color="#00F2B2"/>
</linearGradient>
</defs>
</svg>
