<svg width="14" height="14" viewBox="0 0 14 14" fill="none" xmlns="http://www.w3.org/2000/svg">
<path d="M6.01424 0.315116C6.29227 0.111346 6.64059 0 7 0C7.35941 0 7.70773 0.111346 7.98576 0.315116L13.4108 4.27266C13.5954 4.40807 13.744 4.57851 13.8459 4.77164C13.9478 4.96477 14.0004 5.17576 14 5.38934V12.568C14 13.359 13.2951 14 12.425 14H10.2221C9.352 14 8.64706 13.359 8.64706 12.568V9.16894C8.64706 8.90515 8.41235 8.69147 8.12206 8.69147H5.87794C5.58806 8.69147 5.35294 8.90515 5.35294 9.16894V12.568C5.35294 13.359 4.648 14 3.77794 14H1.575C0.705355 14 2.81517e-06 13.359 2.81517e-06 12.568V5.38934C-0.000443538 5.17576 0.0521934 4.96477 0.154103 4.77164C0.256012 4.57851 0.404644 4.40807 0.589238 4.27266L6.01424 0.315116ZM7.32859 1.05969C7.23589 0.991809 7.11979 0.954722 7 0.954722C6.88021 0.954722 6.76411 0.991809 6.67141 1.05969L1.24641 5.01687C1.18486 5.06204 1.13531 5.1189 1.10134 5.18332C1.06737 5.24773 1.04983 5.31811 1.05 5.38934V12.568C1.05 12.8317 1.28471 13.0454 1.575 13.0454H3.77794C4.06782 13.0454 4.30294 12.8317 4.30294 12.568V9.16894C4.30294 8.37794 5.00829 7.7369 5.87794 7.7369H8.12206C8.99171 7.7369 9.69706 8.37794 9.69706 9.16894V12.568C9.69706 12.8317 9.93176 13.0454 10.2221 13.0454H12.425C12.7149 13.0454 12.95 12.8317 12.95 12.568V5.38934C12.9502 5.31815 12.9327 5.24782 12.8987 5.18345C12.8648 5.11908 12.8152 5.0623 12.7536 5.01723L7.32859 1.05969Z" fill="white"/>
</svg>
