<svg width="16" height="16" viewBox="0 0 16 16" fill="none" xmlns="http://www.w3.org/2000/svg">
<path d="M8.5 7.7C8.07376 7.7 7.66498 7.54197 7.36358 7.26066C7.06218 6.97936 6.89286 6.59783 6.89286 6.2C6.89286 5.80218 7.06218 5.42064 7.36358 5.13934C7.66498 4.85804 8.07376 4.7 8.5 4.7C8.92624 4.7 9.33502 4.85804 9.63642 5.13934C9.93782 5.42064 10.1071 5.80218 10.1071 6.2C10.1071 6.39698 10.0656 6.59204 9.98481 6.77403C9.90404 6.95601 9.78566 7.12137 9.63642 7.26066C9.48718 7.39995 9.31001 7.51044 9.11503 7.58582C8.92004 7.6612 8.71105 7.7 8.5 7.7ZM8.5 2C7.30653 2 6.16193 2.4425 5.31802 3.23015C4.47411 4.0178 4 5.08609 4 6.2C4 9.35 8.5 14 8.5 14C8.5 14 13 9.35 13 6.2C13 5.08609 12.5259 4.0178 11.682 3.23015C10.8381 2.4425 9.69347 2 8.5 2Z" fill="black"/>
</svg>
