<svg width="17" height="17" viewBox="0 0 17 17" fill="none" xmlns="http://www.w3.org/2000/svg">
<path d="M5.02434 14.9925V12.073H3.00811C2.74074 12.073 2.48433 11.9668 2.29527 11.7777C2.10621 11.5887 2 11.3323 2 11.0649V4.00811C2 3.74074 2.10621 3.48433 2.29527 3.29527C2.48433 3.10621 2.74074 3 3.00811 3H14.0974C14.3647 3 14.6211 3.10621 14.8102 3.29527C14.9993 3.48433 15.1055 3.74074 15.1055 4.00811V11.0649C15.1055 11.3323 14.9993 11.5887 14.8102 11.7777C14.6211 11.9668 14.3647 12.073 14.0974 12.073H8.55273L5.4548 15.1709C5.41955 15.2063 5.37461 15.2304 5.32566 15.2401C5.27671 15.2499 5.22597 15.2449 5.17986 15.2258C5.13375 15.2067 5.09436 15.1743 5.06667 15.1328C5.03898 15.0912 5.02425 15.0424 5.02434 14.9925Z" stroke="white" stroke-width="0.75"/>
<path d="M5.02344 9.04875H12.0802M5.02344 6.02441H12.0802" stroke="white" stroke-width="0.75" stroke-linecap="round"/>
</svg>
