<svg width="17" height="17" viewBox="0 0 17 17" fill="none" xmlns="http://www.w3.org/2000/svg">
<path d="M8.49629 2C9.35281 2 10.1567 2.23473 10.8497 2.64552C10.6503 2.83659 10.4829 3.06254 10.3547 3.31367C9.77981 2.99965 9.14293 2.83668 8.49708 2.83833C6.43593 2.83833 4.74883 4.45129 4.58381 6.51442L4.57281 6.69215L4.56888 6.86401V9.96416L4.53902 10.1251L3.7823 12.0642L13.1788 12.0659L13.2142 12.0642L12.4575 10.1251L12.4268 9.96416V7.03C12.7027 7.03 12.9675 6.9797 13.2126 6.88748V9.87865L13.9395 11.7414C13.9568 11.7867 13.9707 11.8334 13.9811 11.8814L13.9929 11.9535L14 12.0642C13.9991 12.2493 13.9408 12.4289 13.8342 12.5749C13.7276 12.7209 13.5786 12.8252 13.4107 12.8715L13.3195 12.8941L13.2142 12.9025L10.4623 12.9017L10.4584 13.0367C10.4268 13.5685 10.2065 14.0675 9.84234 14.4323C9.47814 14.797 8.99738 15 8.49786 15C7.99834 15 7.51759 14.797 7.15338 14.4323C6.78917 14.0675 6.56888 13.5685 6.5373 13.0367L6.53337 12.9017H3.78309C3.71411 12.9018 3.64542 12.8922 3.57878 12.8732L3.48056 12.838C3.32194 12.7666 3.18966 12.6417 3.10405 12.4824C3.01845 12.323 2.98425 12.1381 3.00672 11.956L3.02401 11.8487L3.05701 11.7414L3.7823 9.88117L3.78309 6.85646L3.78702 6.66784C3.88289 4.05475 5.95974 2 8.49629 2ZM9.67655 12.9017H7.31917L7.32467 13.0199C7.35111 13.3102 7.47131 13.5816 7.66468 13.7878C7.85806 13.9939 8.11259 14.122 8.38471 14.15L8.49786 14.1558C8.79075 14.1558 9.07314 14.0395 9.29003 13.8295C9.50691 13.6195 9.64274 13.3309 9.67105 13.0199L9.67655 12.9017ZM11.0179 3.77224C11.1358 3.51654 11.3134 3.29858 11.531 3.13762C11.8454 2.90503 12.2284 2.80273 12.6084 2.8499C12.9883 2.89706 13.3391 3.09046 13.595 3.39382C13.8508 3.69718 13.9942 4.08969 13.9982 4.49777C14.0022 4.90585 13.8666 5.30147 13.6167 5.61049C13.3669 5.9195 13.02 6.12069 12.641 6.17634C12.2621 6.23198 11.8771 6.13827 11.5583 5.91275C11.2395 5.68724 11.0087 5.34542 10.9092 4.95136C10.8097 4.5573 10.8484 4.13807 11.0179 3.77224Z" fill="white"/>
</svg>
