<svg width="17" height="17" viewBox="0 0 17 17" fill="none" xmlns="http://www.w3.org/2000/svg">
<path d="M7.64908 2.0297C7.8831 1.81944 8.1866 1.70312 8.50121 1.70312C8.81581 1.70312 9.11931 1.81944 9.35333 2.0297L14.0283 6.2304C14.1613 6.34993 14.2676 6.49608 14.3403 6.65936C14.4131 6.82263 14.4507 6.99939 14.4508 7.17815V13.1749C14.4508 13.5131 14.3165 13.8374 14.0773 14.0765C13.8382 14.3156 13.5139 14.4499 13.1758 14.4499H11.0508C10.7126 14.4499 10.3883 14.3156 10.1492 14.0765C9.91011 13.8374 9.77578 13.5131 9.77578 13.1749V10.1999C9.77578 10.0872 9.731 9.97908 9.6513 9.89938C9.5716 9.81968 9.4635 9.7749 9.35078 9.7749H7.65078C7.53806 9.7749 7.42996 9.81968 7.35026 9.89938C7.27056 9.97908 7.22578 10.0872 7.22578 10.1999V13.1749C7.22578 13.5131 7.09145 13.8374 6.85234 14.0765C6.61323 14.3156 6.28893 14.4499 5.95078 14.4499H3.82578C3.48763 14.4499 3.16333 14.3156 2.92422 14.0765C2.68511 13.8374 2.55078 13.5131 2.55078 13.1749V7.17815C2.55078 6.8169 2.70378 6.47265 2.97408 6.2304L7.64908 2.0297ZM8.78468 2.6621C8.70669 2.59209 8.60558 2.55337 8.50078 2.55337C8.39598 2.55337 8.29487 2.59209 8.21688 2.6621L3.54188 6.8628C3.49759 6.90256 3.46215 6.95117 3.43784 7.00549C3.41354 7.05982 3.40091 7.11864 3.40078 7.17815V13.1749C3.40078 13.2876 3.44556 13.3957 3.52526 13.4754C3.60496 13.5551 3.71306 13.5999 3.82578 13.5999H5.95078C6.0635 13.5999 6.1716 13.5551 6.2513 13.4754C6.331 13.3957 6.37578 13.2876 6.37578 13.1749V10.1999C6.37578 9.86175 6.51011 9.53745 6.74922 9.29834C6.98833 9.05923 7.31263 8.9249 7.65078 8.9249H9.35078C9.68893 8.9249 10.0132 9.05923 10.2523 9.29834C10.4915 9.53745 10.6258 9.86175 10.6258 10.1999V13.1749C10.6258 13.2876 10.6706 13.3957 10.7503 13.4754C10.83 13.5551 10.9381 13.5999 11.0508 13.5999H13.1758C13.2885 13.5999 13.3966 13.5551 13.4763 13.4754C13.556 13.3957 13.6008 13.2876 13.6008 13.1749V7.17815C13.6007 7.11864 13.588 7.05982 13.5637 7.00549C13.5394 6.95117 13.504 6.90256 13.4597 6.8628L8.78468 2.6621Z" fill="white"/>
</svg>
