<svg width="109" height="10" viewBox="0 0 109 10" fill="none" xmlns="http://www.w3.org/2000/svg">
<path d="M108.442 5.44194C108.686 5.19786 108.686 4.80214 108.442 4.55806L104.464 0.580583C104.22 0.336505 103.825 0.336505 103.581 0.580583C103.337 0.82466 103.337 1.22039 103.581 1.46447L107.116 5L103.581 8.53553C103.337 8.77961 103.337 9.17534 103.581 9.41942C103.825 9.6635 104.22 9.6635 104.464 9.41942L108.442 5.44194ZM0 5.625H2.72903V4.375H0L0 5.625ZM8.1871 5.625H13.6452V4.375H8.1871V5.625ZM19.1032 5.625H24.5613V4.375H19.1032V5.625ZM30.0193 5.625H32.7484V4.375H30.0193V5.625ZM32.7484 5.625H35.1V4.375H32.7484V5.625ZM39.8032 5.625H44.5064V4.375H39.8032V5.625ZM49.2097 5.625H53.9129V4.375H49.2097V5.625ZM58.6161 5.625H63.3194V4.375H58.6161V5.625ZM68.0226 5.625H72.7258V4.375H68.0226V5.625ZM77.429 5.625H82.1323V4.375H77.429V5.625ZM86.8355 5.625H91.5387V4.375H86.8355V5.625ZM96.2419 5.625H100.945V4.375H96.2419V5.625ZM105.648 5.625H108V4.375H105.648V5.625ZM108.442 5.44194C108.686 5.19786 108.686 4.80214 108.442 4.55806L104.464 0.580583C104.22 0.336505 103.825 0.336505 103.581 0.580583C103.337 0.82466 103.337 1.22039 103.581 1.46447L107.116 5L103.581 8.53553C103.337 8.77961 103.337 9.17534 103.581 9.41942C103.825 9.6635 104.22 9.6635 104.464 9.41942L108.442 5.44194ZM0 5.625H2.72903V4.375H0L0 5.625ZM8.1871 5.625H13.6452V4.375H8.1871V5.625ZM19.1032 5.625H24.5613V4.375H19.1032V5.625ZM30.0193 5.625H32.7484V4.375H30.0193V5.625ZM32.7484 5.625H35.1V4.375H32.7484V5.625ZM39.8032 5.625H44.5064V4.375H39.8032V5.625ZM49.2097 5.625H53.9129V4.375H49.2097V5.625ZM58.6161 5.625H63.3194V4.375H58.6161V5.625ZM68.0226 5.625H72.7258V4.375H68.0226V5.625ZM77.429 5.625H82.1323V4.375H77.429V5.625ZM86.8355 5.625H91.5387V4.375H86.8355V5.625ZM96.2419 5.625H100.945V4.375H96.2419V5.625ZM105.648 5.625H108V4.375H105.648V5.625Z" fill="url(#paint0_linear_2655_258)"/>
<defs>
<linearGradient id="paint0_linear_2655_258" x1="32.7484" y1="5.5625" x2="108" y2="5.5625" gradientUnits="userSpaceOnUse">
<stop stop-color="#FF8A00"/>
<stop offset="1" stop-color="#FFC169"/>
</linearGradient>
</defs>
</svg>
