<svg width="12" height="13" viewBox="0 0 12 13" fill="none" xmlns="http://www.w3.org/2000/svg">
<path d="M9.01024 9.21712V7.88823C9.01024 7.8112 8.98135 7.74379 8.92357 7.68601C8.8658 7.62823 8.79839 7.59935 8.72135 7.59935C8.64431 7.59935 8.57691 7.62823 8.51913 7.68601C8.46135 7.74379 8.43246 7.8112 8.43246 7.88823V9.21712C8.43246 9.29416 8.44691 9.36638 8.4758 9.43379C8.50469 9.5012 8.54802 9.56379 8.60579 9.62157L9.48691 10.5027C9.54469 10.5605 9.61209 10.5893 9.68913 10.5893C9.76617 10.5893 9.83357 10.5605 9.89135 10.5027C9.94913 10.4449 9.97802 10.3775 9.97802 10.3005C9.97802 10.2234 9.94913 10.156 9.89135 10.0982L9.01024 9.21712ZM1.21024 11.066C0.892465 11.066 0.620524 10.953 0.394421 10.7269C0.168317 10.5008 0.0550727 10.2286 0.0546875 9.91046V1.82157C0.0546875 1.50379 0.167932 1.23185 0.394421 1.00575C0.62091 0.779645 0.89285 0.666401 1.21024 0.666016H9.29913C9.61691 0.666016 9.88904 0.77926 10.1155 1.00575C10.342 1.23224 10.4551 1.50418 10.4547 1.82157V4.71046C10.4547 4.87416 10.3992 5.01148 10.2883 5.12241C10.1774 5.23335 10.0402 5.28862 9.87691 5.28824C9.71359 5.28785 9.57646 5.23238 9.46553 5.12184C9.3546 5.01129 9.29913 4.87416 9.29913 4.71046V1.82157H1.21024V9.91046H4.09913C4.26283 9.91046 4.40015 9.96592 4.51109 10.0769C4.62202 10.1878 4.67729 10.3249 4.67691 10.4882C4.67652 10.6516 4.62106 10.7889 4.51051 10.9002C4.39996 11.0115 4.26283 11.0668 4.09913 11.066H1.21024ZM1.21024 9.33268V9.91046V1.82157V5.33157V5.28824V9.33268ZM2.3658 8.17712C2.3658 8.34083 2.42126 8.47814 2.5322 8.58908C2.64313 8.70001 2.78026 8.75529 2.94358 8.7549H4.14246C4.30617 8.7549 4.44349 8.69943 4.55442 8.5885C4.66535 8.47757 4.72063 8.34044 4.72024 8.17712C4.71986 8.0138 4.66458 7.87668 4.55442 7.76575C4.44426 7.65481 4.30694 7.59935 4.14246 7.59935H2.94358C2.77987 7.59935 2.64275 7.65481 2.5322 7.76575C2.42165 7.87668 2.36618 8.0138 2.3658 8.17712ZM2.3658 5.86601C2.3658 6.02972 2.42126 6.16704 2.5322 6.27797C2.64313 6.3889 2.78026 6.44418 2.94358 6.44379H5.83246C5.99617 6.44379 6.13349 6.38832 6.24442 6.27739C6.35535 6.16646 6.41063 6.02933 6.41024 5.86601C6.40986 5.70269 6.35439 5.56557 6.24384 5.45464C6.13329 5.3437 5.99617 5.28824 5.83246 5.28824H2.94358C2.77987 5.28824 2.64275 5.3437 2.5322 5.45464C2.42165 5.56557 2.36618 5.70269 2.3658 5.86601ZM2.3658 3.5549C2.3658 3.71861 2.42126 3.85593 2.5322 3.96686C2.64313 4.07779 2.78026 4.13307 2.94358 4.13268H7.5658C7.7295 4.13268 7.86682 4.07721 7.97775 3.96628C8.08868 3.85535 8.14396 3.71822 8.14357 3.5549C8.14319 3.39158 8.08772 3.25446 7.97717 3.14353C7.86663 3.03259 7.7295 2.97713 7.5658 2.97713H2.94358C2.77987 2.97713 2.64275 3.03259 2.5322 3.14353C2.42165 3.25446 2.36618 3.39158 2.3658 3.5549ZM8.72135 12.2216C7.92209 12.2216 7.24089 11.9398 6.67775 11.3763C6.11461 10.8128 5.83285 10.1316 5.83246 9.33268C5.83208 8.5338 6.11384 7.85261 6.67775 7.28908C7.24166 6.72555 7.92286 6.44379 8.72135 6.44379C9.51984 6.44379 10.2012 6.72555 10.7655 7.28908C11.3298 7.85261 11.6114 8.5338 11.6102 9.33268C11.6091 10.1316 11.3273 10.8129 10.765 11.3769C10.2026 11.9408 9.52138 12.2223 8.72135 12.2216Z" fill="white"/>
</svg>
