<svg width="15" height="15" viewBox="0 0 15 15" fill="none" xmlns="http://www.w3.org/2000/svg">
<path d="M7.77953 12.0581C5.08705 12.0581 2.91016 9.88118 2.91016 7.18871C2.91016 4.49623 5.08705 2.31934 7.77953 2.31934C10.472 2.31934 12.6489 4.49623 12.6489 7.18871C12.6489 9.88118 10.472 12.0581 7.77953 12.0581ZM7.77953 2.8922C5.40213 2.8922 3.48302 4.81131 3.48302 7.18871C3.48302 9.5661 5.40213 11.4852 7.77953 11.4852C10.1569 11.4852 12.076 9.5661 12.076 7.18871C12.076 4.81131 10.1569 2.8922 7.77953 2.8922Z" fill="white"/>
<path d="M5.19922 6.90234H10.355V7.47521H5.19922V6.90234Z" fill="white"/>
<path d="M7.49219 4.61133H8.06505V9.76713H7.49219V4.61133Z" fill="white"/>
</svg>
