<svg width="24" height="23" viewBox="0 0 24 23" fill="none" xmlns="http://www.w3.org/2000/svg">
<path fill-rule="evenodd" clip-rule="evenodd" d="M12.0365 2.28988C10.4709 2.28959 8.93261 2.69606 7.57517 3.46871C6.21774 4.24136 5.08863 5.35317 4.30055 6.69316C3.51247 8.03316 3.09297 9.55446 3.08394 11.1052C3.0749 12.656 3.47664 14.182 4.24906 15.5309C4.77114 14.8588 5.44227 14.3146 6.21056 13.9405C6.97884 13.5663 7.8237 13.3722 8.67983 13.373H15.3931C16.2492 13.3722 17.0941 13.5663 17.8624 13.9405C18.6307 14.3146 19.3018 14.8588 19.8239 15.5309C20.5963 14.182 20.998 12.656 20.989 11.1052C20.98 9.55446 20.5605 8.03316 19.7724 6.69316C18.9843 5.35317 17.8552 4.24136 16.4978 3.46871C15.1403 2.69606 13.602 2.28959 12.0365 2.28988ZM20.9237 17.8905C22.4197 15.9587 23.2289 13.5911 23.2253 11.1564C23.2253 5.03517 18.216 0.0732422 12.0365 0.0732422C5.85689 0.0732422 0.847669 5.03517 0.847669 11.1564C0.843975 13.5911 1.65316 15.9587 3.1492 17.8905L3.14361 17.9105L3.54081 18.3682C4.59019 19.5835 5.89313 20.5589 7.35981 21.2273C8.82649 21.8956 10.422 22.241 12.0365 22.2396C14.3048 22.2437 16.5203 21.5612 18.3861 20.2834C19.1816 19.739 19.9028 19.0953 20.5321 18.3682L20.9293 17.9105L20.9237 17.8905ZM12.0365 4.50651C11.1462 4.50651 10.2925 4.85681 9.66296 5.48036C9.03347 6.10391 8.67983 6.94963 8.67983 7.83146C8.67983 8.71329 9.03347 9.559 9.66296 10.1826C10.2925 10.8061 11.1462 11.1564 12.0365 11.1564C12.9267 11.1564 13.7805 10.8061 14.41 10.1826C15.0395 9.559 15.3931 8.71329 15.3931 7.83146C15.3931 6.94963 15.0395 6.10391 14.41 5.48036C13.7805 4.85681 12.9267 4.50651 12.0365 4.50651Z" fill="#B4B4B4"/>
</svg>
