<svg width="116" height="42" viewBox="0 0 116 42" fill="none" xmlns="http://www.w3.org/2000/svg">
<path d="M115.442 36.5581C115.686 36.8021 115.686 37.1979 115.442 37.4419L111.464 41.4194C111.22 41.6635 110.825 41.6635 110.581 41.4194C110.337 41.1753 110.337 40.7796 110.581 40.5355L114.116 37L110.581 33.4645C110.337 33.2204 110.337 32.8247 110.581 32.5806C110.825 32.3365 111.22 32.3365 111.464 32.5806L115.442 36.5581ZM19.4615 37V37.625H18.8365V37H19.4615ZM19.4615 1V0.375H20.0865V1H19.4615ZM0 0.375H2.43269V1.625H0L0 0.375ZM7.29808 0.375H12.1635V1.625H7.29808V0.375ZM17.0288 0.375H19.4615V1.625H17.0288V0.375ZM20.0865 1V3.25H18.8365V1H20.0865ZM20.0865 7.75V12.25H18.8365V7.75H20.0865ZM20.0865 16.75V21.25H18.8365V16.75H20.0865ZM20.0865 25.75V30.25H18.8365V25.75H20.0865ZM20.0865 34.75V37H18.8365V34.75H20.0865ZM19.4615 36.375H22.1582V37.625H19.4615V36.375ZM27.5515 36.375H32.9448V37.625H27.5515V36.375ZM38.3381 36.375H41.0347V37.625H38.3381V36.375ZM41.0347 36.375H43.6764V37.625H41.0347V36.375ZM48.9596 36.375H54.2428V37.625H48.9596V36.375ZM59.5261 36.375H64.8093V37.625H59.5261V36.375ZM70.0925 36.375H75.3757V37.625H70.0925V36.375ZM80.659 36.375H85.9422V37.625H80.659V36.375ZM91.2255 36.375H96.5087V37.625H91.2255V36.375ZM101.792 36.375H107.075V37.625H101.792V36.375ZM112.358 36.375H115V37.625H112.358V36.375ZM115.442 36.5581C115.686 36.8021 115.686 37.1979 115.442 37.4419L111.464 41.4194C111.22 41.6635 110.825 41.6635 110.581 41.4194C110.337 41.1753 110.337 40.7796 110.581 40.5355L114.116 37L110.581 33.4645C110.337 33.2204 110.337 32.8247 110.581 32.5806C110.825 32.3365 111.22 32.3365 111.464 32.5806L115.442 36.5581ZM19.4615 37V37.625H18.8365V37H19.4615ZM19.4615 1V0.375H20.0865V1H19.4615ZM0 0.375H2.43269V1.625H0L0 0.375ZM7.29808 0.375H12.1635V1.625H7.29808V0.375ZM17.0288 0.375H19.4615V1.625H17.0288V0.375ZM20.0865 1V3.25H18.8365V1H20.0865ZM20.0865 7.75V12.25H18.8365V7.75H20.0865ZM20.0865 16.75V21.25H18.8365V16.75H20.0865ZM20.0865 25.75V30.25H18.8365V25.75H20.0865ZM20.0865 34.75V37H18.8365V34.75H20.0865ZM19.4615 36.375H22.1582V37.625H19.4615V36.375ZM27.5515 36.375H32.9448V37.625H27.5515V36.375ZM38.3381 36.375H41.0347V37.625H38.3381V36.375ZM41.0347 36.375H43.6764V37.625H41.0347V36.375ZM48.9596 36.375H54.2428V37.625H48.9596V36.375ZM59.5261 36.375H64.8093V37.625H59.5261V36.375ZM70.0925 36.375H75.3757V37.625H70.0925V36.375ZM80.659 36.375H85.9422V37.625H80.659V36.375ZM91.2255 36.375H96.5087V37.625H91.2255V36.375ZM101.792 36.375H107.075V37.625H101.792V36.375ZM112.358 36.375H115V37.625H112.358V36.375Z" fill="url(#paint0_linear_2655_262)"/>
<defs>
<linearGradient id="paint0_linear_2655_262" x1="41.0347" y1="36.4375" x2="115" y2="36.4375" gradientUnits="userSpaceOnUse">
<stop stop-color="#453A94"/>
<stop offset="1" stop-color="#8D7EFD"/>
</linearGradient>
</defs>
</svg>
