<svg width="24" height="23" viewBox="0 0 24 23" fill="none" xmlns="http://www.w3.org/2000/svg">
<path d="M1.71804 10.2222C1.71804 9.99627 1.80833 9.77959 1.96904 9.61984C2.12975 9.46009 2.34772 9.37034 2.575 9.37034H4.28893C4.51621 9.37034 4.73418 9.46009 4.89489 9.61984C5.0556 9.77959 5.14589 9.99627 5.14589 10.2222C5.14589 10.4481 5.0556 10.6648 4.89489 10.8245C4.73418 10.9843 4.51621 11.074 4.28893 11.074H2.575C2.34772 11.074 2.12975 10.9843 1.96904 10.8245C1.80833 10.6648 1.71804 10.4481 1.71804 10.2222ZM5.94179 5.40392C6.10259 5.56376 6.32068 5.65356 6.54809 5.65356C6.7755 5.65356 6.99359 5.56376 7.15439 5.40392C7.31519 5.24408 7.40553 5.02728 7.40553 4.80123C7.40553 4.57518 7.31519 4.35839 7.15439 4.19855L5.94179 2.99425C5.77977 2.84124 5.56403 2.7572 5.34057 2.76004C5.11711 2.76289 4.9036 2.85239 4.74558 3.00947C4.58755 3.16656 4.49751 3.37879 4.49465 3.60092C4.49179 3.82305 4.57633 4.0375 4.73026 4.19855L5.94179 5.40392ZM12.0016 3.4074C12.2289 3.4074 12.4468 3.31765 12.6075 3.1579C12.7683 2.99814 12.8585 2.78147 12.8585 2.55555V0.851849C12.8585 0.625925 12.7683 0.409254 12.6075 0.249501C12.4468 0.0897481 12.2289 0 12.0016 0C11.7743 0 11.5563 0.0897481 11.3956 0.249501C11.2349 0.409254 11.1446 0.625925 11.1446 0.851849V2.55555C11.1446 2.78147 11.2349 2.99814 11.3956 3.1579C11.5563 3.31765 11.7743 3.4074 12.0016 3.4074ZM17.4551 5.65308C17.5676 5.65317 17.6791 5.63121 17.7832 5.58846C17.8872 5.54571 17.9817 5.483 18.0614 5.40392L19.2729 4.19855C19.4268 4.0375 19.5114 3.82305 19.5085 3.60092C19.5057 3.37879 19.4156 3.16656 19.2576 3.00947C19.0996 2.85239 18.8861 2.76289 18.6626 2.76004C18.4391 2.7572 18.2234 2.84124 18.0614 2.99425L16.8488 4.19855C16.7288 4.31769 16.6471 4.46953 16.6139 4.63486C16.5808 4.80019 16.5978 4.97158 16.6627 5.12731C16.7276 5.28305 16.8376 5.41614 16.9786 5.50974C17.1197 5.60333 17.2855 5.65322 17.4551 5.65308ZM18.8573 10.2222C18.8573 10.4481 18.9476 10.6648 19.1083 10.8245C19.269 10.9843 19.487 11.074 19.7142 11.074H21.4282C21.6554 11.074 21.8734 10.9843 22.0341 10.8245C22.1948 10.6648 22.2851 10.4481 22.2851 10.2222C22.2851 9.99627 22.1948 9.77959 22.0341 9.61984C21.8734 9.46009 21.6554 9.37034 21.4282 9.37034H19.7142C19.487 9.37034 19.269 9.46009 19.1083 9.61984C18.9476 9.77959 18.8573 9.99627 18.8573 10.2222ZM7.71677 11.074C7.94405 11.074 8.16203 10.9843 8.32274 10.8245C8.48345 10.6648 8.57373 10.4481 8.57373 10.2222C8.57373 9.31849 8.93488 8.45181 9.57773 7.8128C10.2206 7.17379 11.0925 6.81479 12.0016 6.81479C12.9107 6.81479 13.7826 7.17379 14.4254 7.8128C15.0683 8.45181 15.4294 9.31849 15.4294 10.2222C15.4294 10.4481 15.5197 10.6648 15.6804 10.8245C15.8411 10.9843 16.0591 11.074 16.2864 11.074C16.5137 11.074 16.7316 10.9843 16.8924 10.8245C17.0531 10.6648 17.1434 10.4481 17.1434 10.2222C17.1434 8.86664 16.6016 7.56662 15.6374 6.6081C14.6731 5.64958 13.3653 5.11109 12.0016 5.11109C10.6379 5.11109 9.33007 5.64958 8.3658 6.6081C7.40153 7.56662 6.85981 8.86664 6.85981 10.2222C6.85981 10.4481 6.9501 10.6648 7.11081 10.8245C7.27152 10.9843 7.48949 11.074 7.71677 11.074ZM13.6298 13.6296H10.3734C10.2755 13.6296 10.1806 13.6628 10.1044 13.7238C10.0282 13.7849 9.97531 13.87 9.95451 13.965L9.28287 17.037H14.7203L14.0486 13.965C14.0279 13.87 13.975 13.7849 13.8988 13.7238C13.8226 13.6628 13.7277 13.6296 13.6298 13.6296ZM1.69126 18.9536L0.111239 21.7285C0.0207705 21.8874 -0.0159857 22.0709 0.00638527 22.252C0.0287563 22.4332 0.109071 22.6024 0.235498 22.7348C0.318888 22.8201 0.418888 22.8876 0.529392 22.9331C0.639896 22.9787 0.758587 23.0015 0.878219 22.9999H5.87966C5.97751 23 6.07242 22.9667 6.14862 22.9057C6.22482 22.8447 6.27771 22.7596 6.2985 22.6645L7.15546 18.7407H2.06404C1.98854 18.7404 1.9143 18.7599 1.84883 18.7973C1.78337 18.8347 1.72901 18.8886 1.69126 18.9536ZM23.8876 21.7222L22.3119 18.9536C22.2742 18.8886 22.2198 18.8347 22.1543 18.7973C22.0889 18.7599 22.0146 18.7404 21.9391 18.7407H16.8466L17.7036 22.6645C17.7244 22.7596 17.7773 22.8447 17.8535 22.9057C17.9297 22.9667 18.0246 23 18.1224 22.9999H23.1164C23.236 23.0015 23.3547 22.9787 23.4652 22.9331C23.5757 22.8876 23.6757 22.8201 23.7591 22.7348C23.8869 22.6034 23.9688 22.4347 23.9927 22.2535C24.0166 22.0723 23.9813 21.8882 23.8919 21.7285L23.8876 21.7222ZM20.8594 16.3981L19.5289 14.0555C19.4539 13.9237 19.3448 13.8142 19.213 13.7382C19.0812 13.6622 18.9314 13.6225 18.7791 13.6232H16.2607C16.1967 13.6232 16.1335 13.6374 16.0757 13.6649C16.018 13.6923 15.9671 13.7323 15.927 13.7818C15.8868 13.8313 15.8583 13.8892 15.8436 13.9511C15.8288 14.013 15.8282 14.0775 15.8418 14.1396L16.4739 17.0306H20.4855C20.56 17.0304 20.6332 17.011 20.6978 16.9741C20.7625 16.9373 20.8163 16.8843 20.8541 16.8204C20.8918 16.7566 20.9122 16.684 20.9131 16.61C20.914 16.5359 20.8955 16.4629 20.8594 16.3981ZM7.74248 13.6296H5.22087C5.06851 13.6289 4.91871 13.6686 4.78691 13.7445C4.65511 13.8205 4.54607 13.9301 4.47103 14.0619L3.14381 16.3981C3.10608 16.463 3.08628 16.5367 3.0864 16.6117C3.08652 16.6868 3.10656 16.7604 3.1445 16.8252C3.18244 16.8901 3.23692 16.9438 3.30245 16.981C3.36797 17.0181 3.44221 17.0375 3.51766 17.037H7.52931L8.16132 14.146C8.17492 14.0838 8.17434 14.0194 8.15961 13.9575C8.14488 13.8956 8.11638 13.8377 8.07621 13.7882C8.03603 13.7387 7.9852 13.6987 7.92745 13.6712C7.8697 13.6438 7.80649 13.6296 7.74248 13.6296ZM15.0931 18.7407H8.91009L8.09169 22.4835C8.07809 22.5457 8.07868 22.6101 8.09341 22.672C8.10814 22.7339 8.13663 22.7918 8.17681 22.8413C8.21699 22.8909 8.26782 22.9308 8.32557 22.9583C8.38332 22.9857 8.44652 22.9999 8.51053 22.9999H15.4926C15.5566 22.9999 15.6198 22.9857 15.6776 22.9583C15.7353 22.9308 15.7862 22.8909 15.8264 22.8413C15.8665 22.7918 15.895 22.7339 15.9098 22.672C15.9245 22.6101 15.9251 22.5457 15.9115 22.4835L15.0931 18.7407Z" fill="white"/>
</svg>
