<svg width="12" height="14" viewBox="0 0 12 14" fill="none" xmlns="http://www.w3.org/2000/svg">
<path d="M10.8699 5.0736H7.01808V1.22175H1.24031V12.7773H10.8699V5.0736ZM10.4713 4.11064L7.98105 1.62042V4.11064H10.4713ZM0.758825 0.258789H7.98105L11.8329 4.11064V13.2588C11.8329 13.3865 11.7822 13.509 11.6919 13.5992C11.6016 13.6895 11.4791 13.7403 11.3514 13.7403H0.758825C0.631128 13.7403 0.508662 13.6895 0.418367 13.5992C0.328071 13.509 0.277344 13.3865 0.277344 13.2588V0.740271C0.277344 0.612574 0.328071 0.490107 0.418367 0.399812C0.508662 0.309516 0.631128 0.258789 0.758825 0.258789ZM3.16623 6.99953H8.94401V7.96249H3.16623V6.99953ZM3.16623 4.11064H5.57364V5.0736H3.16623V4.11064ZM3.16623 9.88842H8.94401V10.8514H3.16623V9.88842Z" fill="#656565"/>
</svg>
