<svg width="12" height="12" viewBox="0 0 12 12" fill="none" xmlns="http://www.w3.org/2000/svg">
<g clip-path="url(#clip0_4008_648)">
<path d="M8.22319 7.48888C8.87323 6.60184 9.16438 5.50207 9.03838 4.40959C8.91239 3.31711 8.37854 2.31249 7.54364 1.59671C6.70875 0.880937 5.63438 0.506794 4.53547 0.549137C3.43656 0.59148 2.39416 1.04719 1.61682 1.82508C0.83948 2.60298 0.38452 3.64571 0.342963 4.74464C0.301407 5.84358 0.676318 6.91768 1.39269 7.75207C2.10907 8.58645 3.11407 9.11958 4.20664 9.2448C5.29921 9.37001 6.39877 9.07807 7.28534 8.42739H7.28467C7.30436 8.45425 7.32629 8.47998 7.35046 8.5046L9.93508 11.0892C10.061 11.2152 10.2317 11.286 10.4098 11.286C10.5879 11.2861 10.7587 11.2154 10.8847 11.0895C11.0106 10.9637 11.0814 10.7929 11.0815 10.6148C11.0816 10.4367 11.0109 10.2659 10.885 10.14L8.30039 7.55534C8.2764 7.53103 8.25059 7.50926 8.22319 7.48888ZM8.39639 4.90829C8.39639 5.39317 8.30089 5.8733 8.11533 6.32128C7.92977 6.76925 7.6578 7.17628 7.31494 7.51915C6.97208 7.86201 6.56504 8.13398 6.11707 8.31954C5.6691 8.50509 5.18896 8.6006 4.70408 8.6006C4.2192 8.6006 3.73907 8.50509 3.2911 8.31954C2.84313 8.13398 2.43609 7.86201 2.09323 7.51915C1.75036 7.17628 1.47839 6.76925 1.29284 6.32128C1.10728 5.8733 1.01178 5.39317 1.01178 4.90829C1.01178 3.92903 1.40079 2.98988 2.09323 2.29744C2.78567 1.60499 3.72482 1.21598 4.70408 1.21598C5.68334 1.21598 6.6225 1.60499 7.31494 2.29744C8.00738 2.98988 8.39639 3.92903 8.39639 4.90829Z" fill="#656565"/>
</g>
<defs>
<clipPath id="clip0_4008_648">
<rect width="10.7413" height="10.7413" fill="white" transform="translate(0.339844 0.544922)"/>
</clipPath>
</defs>
</svg>
