<svg width="17" height="17" viewBox="0 0 17 17" fill="none" xmlns="http://www.w3.org/2000/svg">
<path fill-rule="evenodd" clip-rule="evenodd" d="M8.50273 2.83301C8.78687 2.83301 9.06697 2.85406 9.33978 2.89453L9.75102 4.14039C10.1113 4.2432 10.4537 4.38972 10.771 4.57429L11.9529 4.00439C12.3714 4.32577 12.7438 4.70463 13.0579 5.12882L12.467 6.3002C12.6459 6.62077 12.7867 6.96563 12.8831 7.32829L14.1216 7.75977C14.1899 8.28354 14.1852 8.81423 14.1079 9.33672L12.862 9.74796C12.7599 10.1045 12.6142 10.4471 12.4281 10.768L12.998 11.9499C12.6762 12.3685 12.2978 12.7404 11.8736 13.0549L10.7022 12.4639C10.3782 12.6449 10.0328 12.7846 9.67411 12.88L9.24263 14.1186C8.71887 14.1868 8.18818 14.1822 7.66568 14.1048L7.25444 12.859C6.89788 12.7569 6.55529 12.6111 6.23444 12.4251L5.05254 12.995C4.6339 12.6731 4.26201 12.2947 3.94754 11.8705L4.53849 10.6992C4.35798 10.3749 4.21822 10.0296 4.1224 9.67106L2.88382 9.23877C2.81566 8.71527 2.82029 8.18486 2.89759 7.66263L4.14344 7.25139C4.24625 6.89115 4.39278 6.54872 4.57735 6.23139L4.00744 5.04948C4.32926 4.63085 4.70769 4.25896 5.13187 3.94448L6.30325 4.53544C6.6273 4.35448 6.97267 4.2147 7.33135 4.11934L7.76363 2.88077C8.00871 2.84889 8.25559 2.83293 8.50273 2.83301Z" stroke="white" stroke-width="0.75" stroke-linecap="round" stroke-linejoin="round"/>
<path d="M8.50279 10.9284C9.84405 10.9284 10.9314 9.84112 10.9314 8.49986C10.9314 7.1586 9.84405 6.07129 8.50279 6.07129C7.16153 6.07129 6.07422 7.1586 6.07422 8.49986C6.07422 9.84112 7.16153 10.9284 8.50279 10.9284Z" stroke="white" stroke-width="0.75" stroke-linecap="round" stroke-linejoin="round"/>
</svg>
