<svg width="22" height="22" viewBox="0 0 22 22" fill="none" xmlns="http://www.w3.org/2000/svg">
<path d="M6.22445 2.58555C5.4557 2.96992 5.19945 3.99492 5.71195 4.50742C6.35257 3.3543 7.37757 3.73867 8.91507 5.01992C9.94007 5.9168 11.3494 5.14805 11.3494 5.14805C11.3494 5.14805 11.6057 6.68555 13.5276 6.9418C15.7057 7.19805 16.4744 5.9168 16.4744 5.9168C16.4744 5.9168 16.9869 7.19805 18.9088 6.4293C20.3182 5.9168 19.8057 5.01992 19.8057 5.01992C19.8057 5.01992 21.0869 5.01992 21.0869 4.12305C21.0869 2.96992 19.6776 3.09805 19.6776 3.09805C19.6776 3.09805 19.9338 1.8168 18.5244 1.68867C17.2432 1.56055 16.8588 2.3293 16.8588 2.3293C16.8588 2.3293 16.4744 0.919922 14.5526 0.919922C12.7588 0.919922 12.1182 2.58555 12.1182 2.58555C12.1182 2.58555 11.6057 1.8168 10.0682 1.8168C8.91507 1.8168 8.40257 2.71367 8.40257 2.71367C8.40257 2.71367 6.9932 2.07305 6.22445 2.58555Z" fill="white"/>
<path d="M17.0557 15.8463C16.5563 16.1085 15.957 15.7463 15.957 15.1822V14.9732C15.957 14.4092 15.3578 14.047 14.8584 14.3092L11.9307 15.8463C11.4313 16.1085 10.832 15.7463 10.832 15.1822V14.4824C10.832 14.0682 10.4962 13.7324 10.082 13.7324H8.4455C8.05611 13.7324 7.73149 13.4344 7.69824 13.0465L7.04708 5.44962C7.01382 5.06166 6.6892 4.76367 6.29982 4.76367H5.11425C4.72486 4.76367 4.40024 5.06166 4.36699 5.44962L3.71583 13.0465C3.68257 13.4344 3.35795 13.7324 2.96857 13.7324H1.33203C0.917818 13.7324 0.582031 14.0682 0.582031 14.4824V20.6699C0.582031 21.0841 0.917818 21.4199 1.33203 21.4199H20.332C20.7462 21.4199 21.082 21.0841 21.082 20.6699V14.9732C21.082 14.4092 20.4828 14.047 19.9834 14.3092L17.0557 15.8463ZM8.26953 18.1074C8.26953 18.5216 7.93374 18.8574 7.51953 18.8574H3.89453C3.48032 18.8574 3.14453 18.5216 3.14453 18.1074V17.0449C3.14453 16.6307 3.48032 16.2949 3.89453 16.2949H7.51953C7.93375 16.2949 8.26953 16.6307 8.26953 17.0449V18.1074Z" fill="white"/>
</svg>
