<svg width="17" height="17" viewBox="0 0 17 17" fill="none" xmlns="http://www.w3.org/2000/svg">
<path d="M11.0181 7.24883L13.7083 4.55379L13.2726 4.11805L11.0181 6.37256L9.88083 5.25049L9.44509 5.69102L11.0181 7.24883ZM2 14.7689V13.9709H10.7786V14.7689H2ZM11.5791 9.18253C10.5858 9.18253 9.73851 8.83271 9.03728 8.13308C8.33605 7.43292 7.98544 6.58618 7.98544 5.59286C7.98544 4.59954 8.33552 3.75227 9.03569 3.05104C9.73585 2.34982 10.5821 1.99947 11.5743 2C12.5676 2 13.4149 2.35008 14.1161 3.05025C14.8174 3.74935 15.168 4.59555 15.168 5.58887C15.168 6.58219 14.8182 7.42946 14.1185 8.13069C13.4189 8.83192 12.5724 9.18253 11.5791 9.18253ZM2 8.38447V7.58641H6.29116C6.3433 7.73538 6.40103 7.87398 6.46434 8.0022C6.52818 8.12989 6.60054 8.25731 6.68141 8.38447H2ZM2 11.5767V10.7786H9.39481C9.60816 10.8728 9.83162 10.955 10.0652 11.0252C10.2987 11.0955 10.5366 11.1468 10.7786 11.1793V11.5767H2Z" fill="white"/>
</svg>
