<svg width="20" height="20" viewBox="0 0 20 20" fill="none" xmlns="http://www.w3.org/2000/svg">
<path d="M3.16406 16.9706L4.4054 10.7631H15.5782L16.8195 16.9698L3.16406 16.9706ZM3.5374 3.77791V3.00013H5.64673V3.77791H3.5374ZM4.12695 16.1928H9.61028V14.2779H4.51273L4.12695 16.1928ZM5.34029 7.84491L4.78495 7.3098L6.27362 5.82113L6.82895 6.35702L5.34029 7.84491ZM4.67451 13.5001H9.61028V11.5401H5.06028L4.67451 13.5001ZM9.99917 6.1268C9.12288 6.1268 8.38036 5.82217 7.77162 5.21291C7.16288 4.60365 6.85851 3.86113 6.85851 2.98535H7.63628C7.63628 3.6418 7.86625 4.19972 8.32617 4.65913C8.78558 5.11854 9.34377 5.34824 10.0007 5.34824C10.6577 5.34824 11.2156 5.11854 11.6745 4.65913C12.1334 4.19972 12.3628 3.6418 12.3628 2.98535H13.1406C13.1406 3.86165 12.8362 4.60417 12.2275 5.21291C11.6188 5.82165 10.876 6.12628 9.99917 6.1268ZM9.61028 9.37246V7.26313H10.3881V9.37169L9.61028 9.37246ZM10.3881 16.1936H15.8558L15.4708 14.2787H10.3881V16.1936ZM10.3881 13.5009H15.3091L14.9233 11.5409H10.3881V13.5009ZM14.6884 7.86046L13.1896 6.3578L13.7255 5.82191L15.243 7.30591L14.6884 7.86046ZM14.3516 3.77791V3.00013H16.461V3.77791H14.3516Z" fill="#575757"/>
</svg>
