<svg width="16" height="20" viewBox="0 0 16 20" fill="none" xmlns="http://www.w3.org/2000/svg">
<path d="M4.23559 3.45L2.43192 2.55L3.70868 0H12.2913L13.5782 2.55L11.7745 3.44L11.045 2H4.96517L4.23559 3.45ZM14.7131 6H10.1229L9.32236 3H6.68778L5.88727 6H1.29702L0 8.55L1.81381 9.44L2.55352 8H13.4566L14.1862 9.45L16 8.56L14.7131 6ZM13.8518 20H11.7543L11.5111 19.1L8.00507 13.9L4.48892 19.1L4.25586 20H2.15833L5.08676 9H7.18429L6.81951 10.35L8.00507 12.1L9.18049 10.35L8.82584 9H10.9234L13.8518 20ZM7.39709 13L6.48512 11.65L5.28942 16.13L7.39709 13ZM10.7207 16.12L9.52502 11.64L8.61305 13L10.7207 16.12Z" fill="white"/>
</svg>
