<svg width="1031" height="144" viewBox="0 0 1031 144" fill="none" xmlns="http://www.w3.org/2000/svg">
<g filter="url(#filter0_i_4040_760)">
<path d="M85.4725 57.0424L102.59 0L170.891 0.112843V32.0475H126.543V54.1649H168.236V89.4849H126.543V111.489H170.778V143.819L55.418 143.875L107.166 57.0424H85.4725Z" fill="white"/>
<path d="M102.436 0H0V31.8219H30.4308V143.875H55.2055L79.1316 83.8427H49.6057L102.436 0Z" fill="white"/>
</g>
<g filter="url(#filter1_i_4040_760)">
<path d="M728.088 83.0586L700.973 83.2966L726.654 70.8018C728.374 75.4665 728.326 80.9166 728.088 83.0586Z" fill="white"/>
<path d="M728.207 102.218L701.809 102.099L726.773 114.474C728.493 109.81 728.446 104.36 728.207 102.218Z" fill="white"/>
<path d="M243.118 36.5309V23.2031H275.847V34.1509C273.745 42.9092 263.503 45.0988 258.646 45.0988V48.4307H296.631V68.8984H275.847V102.218C276.229 109.263 281.103 111.182 283.492 111.262H296.631V135.537H273.219C247.991 135.537 242.64 116.498 243.118 106.978V68.8984H230.695V48.4307C241.398 47.6691 243.436 40.1801 243.118 36.5309Z" fill="white"/>
<path d="M749.431 35.9008V22.4883H782.397V33.5056C780.28 42.3195 769.965 44.5231 765.072 44.5231V47.8763H803.331V68.4739H782.397V102.005C782.782 109.095 787.691 111.027 790.097 111.107H803.331V135.536H779.75C754.338 135.536 748.949 116.376 749.431 106.795V68.4739H736.918V47.8763C747.697 47.1097 749.752 39.5733 749.431 35.9008Z" fill="white"/>
<path d="M310.965 135.536V50.9185H337.449L340.141 72.1885C348.402 48.8839 371.114 46.4487 381.44 48.1442L377.4 78.662C348.312 70.8938 340.442 84.3648 340.141 92.0714V135.536H310.965Z" fill="white"/>
<path d="M818.145 135.537V50.6897H845.615L848.41 72.0175C856.977 48.6498 880.537 46.208 891.247 47.908L887.057 78.5086C856.884 70.7192 848.721 84.2269 848.41 91.9542V135.537H818.145Z" fill="white"/>
<path d="M424.201 47.7158H393.145V135.536H424.201V47.7158Z" fill="white"/>
<path d="M424.201 7.01855H393.145V36.0541H424.201V7.01855Z" fill="white"/>
<path d="M933.529 47.7158H902.473V135.536H933.529V47.7158Z" fill="white"/>
<path d="M933.529 7.25684H902.473V36.2924H933.529V7.25684Z" fill="white"/>
<path d="M474.6 7.25684H443.543V135.537H474.6V7.25684Z" fill="white"/>
<path d="M525.022 7.25684H493.965V135.537H525.022V7.25684Z" fill="white"/>
<path d="M584.434 135.22C574.661 135.22 566.173 133.456 558.965 129.926C551.88 126.276 546.383 121.164 542.474 114.593C538.566 108.021 536.609 100.294 536.609 91.4099C536.609 82.4044 538.504 74.616 542.29 68.0444C546.077 61.4729 551.514 56.4226 558.598 52.8934C565.805 49.3641 574.295 47.5996 584.069 47.5996C593.84 47.5996 602.086 49.3034 608.804 52.7108C615.524 55.9966 620.653 60.8036 624.196 67.1317C627.739 73.4598 629.509 81.1266 629.509 90.1321C629.509 91.4709 629.509 92.8093 629.509 94.1481C629.509 95.3649 629.388 96.3995 629.144 97.2513H552.185V81.9177H604.225L597.629 90.3147C598.238 89.4629 598.728 88.4283 599.093 87.2114C599.583 85.8727 599.826 84.7775 599.826 83.9257C599.826 80.2748 599.155 77.1106 597.81 74.4334C596.468 71.7562 594.573 69.6873 592.132 68.227C589.688 66.7666 586.816 66.0364 583.519 66.0364C579.365 66.0364 575.884 66.9492 573.075 68.7746C570.265 70.6 568.127 73.3991 566.66 77.1716C565.318 80.8224 564.584 85.4469 564.462 91.0448C564.462 96.156 565.196 100.537 566.66 104.188C568.127 107.839 570.325 110.638 573.256 112.585C576.19 114.41 579.792 115.323 584.069 115.323C588.954 115.323 593.109 114.41 596.527 112.585C600.07 110.759 602.88 108.021 604.958 104.37L629.693 110.394C625.295 118.67 619.311 124.876 611.735 129.014C604.284 133.151 595.185 135.22 584.434 135.22Z" fill="white"/>
<path d="M686.722 48.2852C695.327 48.2852 702.461 49.5261 708.123 52.0079C713.899 54.3769 718.371 57.592 721.542 61.6532C724.826 65.6015 726.864 69.8883 727.657 74.5135L700.989 83.3127C700.196 78.4619 698.724 74.8519 696.574 72.4829C694.534 70.0011 691.534 68.7602 687.57 68.7602C683.949 68.7602 680.891 69.6063 678.399 71.2984C676.022 72.8778 674.209 75.4724 672.964 79.0823C671.717 82.5794 671.096 87.0919 671.096 92.6195C671.096 98.1472 671.774 102.66 673.134 106.157C674.493 109.541 676.416 112.023 678.908 113.602C681.4 115.069 684.343 115.802 687.74 115.802C690.571 115.802 692.893 115.294 694.706 114.279C696.629 113.151 698.216 111.572 699.46 109.541C700.707 107.51 701.5 105.029 701.84 102.096L727.827 110.387C727.034 115.351 724.884 119.807 721.372 123.755C717.975 127.591 713.445 130.637 707.783 132.893C702.122 135.149 695.497 136.277 687.912 136.277C678.626 136.277 670.53 134.585 663.621 131.201C656.714 127.704 651.392 122.683 647.655 116.14C643.919 109.485 642.051 101.532 642.051 92.2811C642.051 83.0307 643.919 75.134 647.655 68.591C651.392 61.9352 656.6 56.9151 663.282 53.5308C670.076 50.0337 677.89 48.2852 686.722 48.2852Z" fill="white"/>
<path d="M1030.75 83.0586L1003.63 83.2966L1029.31 70.8018C1031.03 75.4665 1030.99 80.9166 1030.75 83.0586Z" fill="white"/>
<path d="M1030.88 102.218L1004.48 102.099L1029.45 114.474C1031.17 109.81 1031.12 104.36 1030.88 102.218Z" fill="white"/>
<path d="M989.41 48.2852C998.015 48.2852 1005.15 49.5261 1010.81 52.0079C1016.59 54.3769 1021.06 57.592 1024.23 61.6532C1027.51 65.6015 1029.55 69.8883 1030.34 74.5135L1003.68 83.3127C1002.88 78.4619 1001.41 74.8519 999.262 72.4829C997.222 70.0011 994.221 68.7602 990.258 68.7602C986.636 68.7602 983.578 69.6063 981.087 71.2984C978.71 72.8778 976.896 75.4724 975.652 79.0823C974.405 82.5794 973.783 87.0919 973.783 92.6195C973.783 98.1472 974.462 102.66 975.821 106.157C977.181 109.541 979.104 112.023 981.595 113.602C984.087 115.069 987.03 115.802 990.427 115.802C993.258 115.802 995.58 115.294 997.394 114.279C999.317 113.151 1000.9 111.572 1002.15 109.541C1003.39 107.51 1004.19 105.029 1004.53 102.096L1030.51 110.387C1029.72 115.351 1027.57 119.807 1024.06 123.755C1020.66 127.591 1016.13 130.637 1010.47 132.893C1004.81 135.149 998.184 136.277 990.599 136.277C981.313 136.277 973.217 134.585 966.308 131.201C959.402 127.704 954.079 122.683 950.343 116.14C946.607 109.485 944.738 101.532 944.738 92.2811C944.738 83.0307 946.607 75.134 950.343 68.591C954.079 61.9352 959.287 56.9151 965.969 53.5308C972.763 50.0337 980.578 48.2852 989.41 48.2852Z" fill="white"/>
</g>
<defs>
<filter id="filter0_i_4040_760" x="0" y="-11.0811" width="170.891" height="154.956" filterUnits="userSpaceOnUse" color-interpolation-filters="sRGB">
<feFlood flood-opacity="0" result="BackgroundImageFix"/>
<feBlend mode="normal" in="SourceGraphic" in2="BackgroundImageFix" result="shape"/>
<feColorMatrix in="SourceAlpha" type="matrix" values="0 0 0 0 0 0 0 0 0 0 0 0 0 0 0 0 0 0 127 0" result="hardAlpha"/>
<feOffset dy="-11.0811"/>
<feGaussianBlur stdDeviation="6.67037"/>
<feComposite in2="hardAlpha" operator="arithmetic" k2="-1" k3="1"/>
<feColorMatrix type="matrix" values="0 0 0 0 0 0 0 0 0 0 0 0 0 0 0 0 0 0 0.26 0"/>
<feBlend mode="normal" in2="shape" result="effect1_innerShadow_4040_760"/>
</filter>
<filter id="filter1_i_4040_760" x="230.695" y="-2.98701" width="800.305" height="139.264" filterUnits="userSpaceOnUse" color-interpolation-filters="sRGB">
<feFlood flood-opacity="0" result="BackgroundImageFix"/>
<feBlend mode="normal" in="SourceGraphic" in2="BackgroundImageFix" result="shape"/>
<feColorMatrix in="SourceAlpha" type="matrix" values="0 0 0 0 0 0 0 0 0 0 0 0 0 0 0 0 0 0 127 0" result="hardAlpha"/>
<feOffset dy="-10.0056"/>
<feGaussianBlur stdDeviation="6.67037"/>
<feComposite in2="hardAlpha" operator="arithmetic" k2="-1" k3="1"/>
<feColorMatrix type="matrix" values="0 0 0 0 0 0 0 0 0 0 0 0 0 0 0 0 0 0 0.25 0"/>
<feBlend mode="normal" in2="shape" result="effect1_innerShadow_4040_760"/>
</filter>
</defs>
</svg>
